<svg viewBox="-12 0 512 512.00114" xmlns="http://www.w3.org/2000/svg"><path d="m487.839844 268.082031c0 134.710938-109.207032 243.917969-243.921875 243.917969-134.710938 0-243.917969-109.207031-243.917969-243.917969 0-134.710937 109.207031-243.917969 243.917969-243.917969 134.714843 0 243.921875 109.207032 243.921875 243.917969zm0 0" fill="#994e04"/><path d="m432.386719 422.929688-29.996094-45.304688c-22.253906-33.613281-28.320313-72.238281-31.914063-112.394531l-19.269531-117.980469c-2.183593-10.425781-5.195312-20.660156-9.003906-30.605469l-45.558594-103.179687c-4.277343-9.425782-14.332031-14.820313-24.550781-13.167969-14.046875 2.265625-23.589844 15.492187-21.320312 29.535156l19.316406 119.574219c-.210938.035156-.417969.070312-.625.105469-16.683594 2.898437-27.84375 18.8125-25.140625 35.53125l13.277343 82.175781c3.136719 19.429688-6.792968 21.273438-6.347656 48.589844.445313 27.464844 11.652344 53.667968 30.609375 73.546875l55.691407 104.011719c37.144531-15.453126 69.648437-39.820313 94.832031-70.4375zm0 0" fill="#f7cf9c"/><path d="m218.375 149.511719c-.207031-.035157-.414062-.070313-.625-.105469l19.320312-119.570312c2.269532-14.046876-7.277343-27.269532-21.320312-29.539063-10.21875-1.652344-20.277344 3.746094-24.554688 13.171875l-45.558593 103.175781c-3.808594 9.949219-6.816407 20.179688-9.003907 30.605469l-19.269531 117.980469c-3.589843 40.15625-9.660156 78.785156-31.914062 112.398437l-29.996094 45.300782c25.183594 30.617187 57.6875 54.984374 94.832031 70.441406l55.691406-104.011719c18.960938-19.882813 30.164063-46.082031 30.609376-73.546875.445312-27.261719-9.480469-29.1875-6.34375-48.589844l13.273437-82.175781c2.703125-16.722656-8.457031-32.636719-25.140625-35.535156zm0 0" fill="#f7cf9c"/><path d="m287.03125 184.128906-4.6875-28.222656c-1.066406-6.429688-6.675781-11.015625-12.992188-11.054688l.734376 4.554688c-.207032.035156-.414063.070312-.621094.105469-8.332032 1.445312-15.285156 6.140625-19.824219 12.554687l4.570313 27.511719c1.195312 7.183594 8.050781 12.085937 15.234374 10.894531l6.691407-1.113281c7.1875-1.191406 12.085937-8.046875 10.894531-15.230469zm0 0" fill="#efefef"/><path d="m218.375 149.511719c-.207031-.035157-.414062-.070313-.625-.105469l1.097656-6.792969c-6.878906-.511719-13.191406 4.332031-14.34375 11.265625l-4.980468 29.972656c-1.21875 7.335938 3.789062 14.335938 11.125 15.554688l6.136718 1.023438c7.339844 1.21875 14.339844-3.789063 15.558594-11.125l4.761719-28.671876c-4.527344-5.675781-11.039063-9.785156-18.730469-11.121093zm0 0" fill="#efefef"/><g fill="#eab883"><path d="m294.695312 170.925781 17.429688 107.882813c.828125 5.113281 5.636719 8.546875 10.707031 7.730468 5.089844-.824218 8.546875-5.617187 7.726563-10.707031l-17.429688-107.886719c-3.273437-20.257812-19.550781-35.550781-39.578125-37.195312-2.835937-.234375-4.734375-.132812-5.089843-.109375-.46875.027344-.925782.105469-1.371094.199219l2.976562 18.429687c.417969.003907 1.085938.019531 1.953125.089844 11.449219.9375 20.777344 9.808594 22.675781 21.566406zm0 0"/><path d="m193.144531 170.925781-17.429687 107.882813c-.828125 5.113281-5.640625 8.546875-10.707032 7.730468-5.089843-.824218-8.546874-5.617187-7.726562-10.707031l17.429688-107.886719c3.273437-20.257812 19.550781-35.550781 39.578124-37.195312 2.835938-.234375 4.734376-.132812 5.085938-.109375.472656.027344.929688.105469 1.375.199219l-2.976562 18.429687c-.417969.003907-1.085938.019531-1.953126.089844-11.453124.9375-20.777343 9.808594-22.675781 21.566406zm0 0"/><path d="m383.78125 338.835938c-6.695312 47.8125-59.167969 74.105468-101.394531 51.5l55.167969 103.035156c37.144531-15.457032 69.648437-39.824219 94.832031-70.441406-24.707031-39.535157-37.558594-50.859376-48.605469-84.09375zm0 0"/><path d="m104.058594 338.835938c-11.0625 33.289062-24.046875 44.792968-48.609375 84.09375 25.1875 30.617187 57.691406 54.984374 94.835937 70.4375l55.167969-103.035157c-42.222656 22.609375-94.699219-3.679687-101.394531-51.496093zm0 0"/></g></svg>